<svg xmlns="http://www.w3.org/2000/svg" width="123" height="110"><rect x="0" y="0" width="100%" height="100%" fill="rgb(58,119,149)"></rect><polyline points="10.333333333333332,0,20.666666666666664,18.333333333333336,10.333333333333332,36.66666666666667,0,18.333333333333336" fill="#ddd" fill-opacity="0.05466666666666667" stroke="#000" stroke-opacity="0.02" transform="translate(-10.333333333333332,-18.333333333333336)"></polyline><polyline points="10.333333333333332,0,20.666666666666664,18.333333333333336,10.333333333333332,36.66666666666667,0,18.333333333333336" fill="#ddd" fill-opacity="0.05466666666666667" stroke="#000" stroke-opacity="0.02" transform="translate(113.66666666666666,-18.333333333333336)"></polyline><polyline points="10.333333333333332,0,20.666666666666664,18.333333333333336,10.333333333333332,36.66666666666667,0,18.333333333333336" fill="#ddd" fill-opacity="0.05466666666666667" stroke="#000" stroke-opacity="0.02" transform="translate(-10.333333333333332,91.66666666666669)"></polyline><polyline points="10.333333333333332,0,20.666666666666664,18.333333333333336,10.333333333333332,36.66666666666667,0,18.333333333333336" fill="#ddd" fill-opacity="0.05466666666666667" stroke="#000" stroke-opacity="0.02" transform="translate(113.66666666666666,91.66666666666669)"></polyline><polyline points="10.333333333333332,0,20.666666666666664,18.333333333333336,10.333333333333332,36.66666666666667,0,18.333333333333336" fill="#ddd" fill-opacity="0.10666666666666667" stroke="#000" stroke-opacity="0.02" transform="translate(10.333333333333332,-18.333333333333336)"></polyline><polyline points="10.333333333333332,0,20.666666666666664,18.333333333333336,10.333333333333332,36.66666666666667,0,18.333333333333336" fill="#ddd" fill-opacity="0.10666666666666667" stroke="#000" stroke-opacity="0.02" transform="translate(10.333333333333332,91.66666666666669)"></polyline><polyline points="10.333333333333332,0,20.666666666666664,18.333333333333336,10.333333333333332,36.66666666666667,0,18.333333333333336" fill="#222" fill-opacity="0.15" stroke="#000" stroke-opacity="0.02" transform="translate(30.999999999999996,-18.333333333333336)"></polyline><polyline points="10.333333333333332,0,20.666666666666664,18.333333333333336,10.333333333333332,36.66666666666667,0,18.333333333333336" fill="#222" fill-opacity="0.15" stroke="#000" stroke-opacity="0.02" transform="translate(30.999999999999996,91.66666666666669)"></polyline><polyline points="10.333333333333332,0,20.666666666666664,18.333333333333336,10.333333333333332,36.66666666666667,0,18.333333333333336" fill="#222" fill-opacity="0.11533333333333334" stroke="#000" stroke-opacity="0.02" transform="translate(51.66666666666666,-18.333333333333336)"></polyline><polyline points="10.333333333333332,0,20.666666666666664,18.333333333333336,10.333333333333332,36.66666666666667,0,18.333333333333336" fill="#222" fill-opacity="0.11533333333333334" stroke="#000" stroke-opacity="0.02" transform="translate(51.66666666666666,91.66666666666669)"></polyline><polyline points="10.333333333333332,0,20.666666666666664,18.333333333333336,10.333333333333332,36.66666666666667,0,18.333333333333336" fill="#ddd" fill-opacity="0.05466666666666667" stroke="#000" stroke-opacity="0.02" transform="translate(72.33333333333333,-18.333333333333336)"></polyline><polyline points="10.333333333333332,0,20.666666666666664,18.333333333333336,10.333333333333332,36.66666666666667,0,18.333333333333336" fill="#ddd" fill-opacity="0.05466666666666667" stroke="#000" stroke-opacity="0.02" transform="translate(72.33333333333333,91.66666666666669)"></polyline><polyline points="10.333333333333332,0,20.666666666666664,18.333333333333336,10.333333333333332,36.66666666666667,0,18.333333333333336" fill="#222" fill-opacity="0.06333333333333334" stroke="#000" stroke-opacity="0.02" transform="translate(92.99999999999999,-18.333333333333336)"></polyline><polyline points="10.333333333333332,0,20.666666666666664,18.333333333333336,10.333333333333332,36.66666666666667,0,18.333333333333336" fill="#222" fill-opacity="0.06333333333333334" stroke="#000" stroke-opacity="0.02" transform="translate(92.99999999999999,91.66666666666669)"></polyline><polyline points="10.333333333333332,0,20.666666666666664,18.333333333333336,10.333333333333332,36.66666666666667,0,18.333333333333336" fill="#ddd" fill-opacity="0.07200000000000001" stroke="#000" stroke-opacity="0.02" transform="translate(0,0)"></polyline><polyline points="10.333333333333332,0,20.666666666666664,18.333333333333336,10.333333333333332,36.66666666666667,0,18.333333333333336" fill="#ddd" fill-opacity="0.07200000000000001" stroke="#000" stroke-opacity="0.02" transform="translate(123.99999999999999,0)"></polyline><polyline points="10.333333333333332,0,20.666666666666664,18.333333333333336,10.333333333333332,36.66666666666667,0,18.333333333333336" fill="#222" fill-opacity="0.06333333333333334" stroke="#000" stroke-opacity="0.02" transform="translate(20.666666666666664,0)"></polyline><polyline points="10.333333333333332,0,20.666666666666664,18.333333333333336,10.333333333333332,36.66666666666667,0,18.333333333333336" fill="#222" fill-opacity="0.15" stroke="#000" stroke-opacity="0.02" transform="translate(41.33333333333333,0)"></polyline><polyline points="10.333333333333332,0,20.666666666666664,18.333333333333336,10.333333333333332,36.66666666666667,0,18.333333333333336" fill="#222" fill-opacity="0.028666666666666667" stroke="#000" stroke-opacity="0.02" transform="translate(61.999999999999986,0)"></polyline><polyline points="10.333333333333332,0,20.666666666666664,18.333333333333336,10.333333333333332,36.66666666666667,0,18.333333333333336" fill="#ddd" fill-opacity="0.02" stroke="#000" stroke-opacity="0.02" transform="translate(82.66666666666666,0)"></polyline><polyline points="10.333333333333332,0,20.666666666666664,18.333333333333336,10.333333333333332,36.66666666666667,0,18.333333333333336" fill="#ddd" fill-opacity="0.14133333333333334" stroke="#000" stroke-opacity="0.02" transform="translate(103.33333333333331,0)"></polyline><polyline points="10.333333333333332,0,20.666666666666664,18.333333333333336,10.333333333333332,36.66666666666667,0,18.333333333333336" fill="#ddd" fill-opacity="0.08933333333333333" stroke="#000" stroke-opacity="0.02" transform="translate(-10.333333333333332,18.333333333333336)"></polyline><polyline points="10.333333333333332,0,20.666666666666664,18.333333333333336,10.333333333333332,36.66666666666667,0,18.333333333333336" fill="#ddd" fill-opacity="0.08933333333333333" stroke="#000" stroke-opacity="0.02" transform="translate(113.66666666666666,18.333333333333336)"></polyline><polyline points="10.333333333333332,0,20.666666666666664,18.333333333333336,10.333333333333332,36.66666666666667,0,18.333333333333336" fill="#ddd" fill-opacity="0.05466666666666667" stroke="#000" stroke-opacity="0.02" transform="translate(10.333333333333332,18.333333333333336)"></polyline><polyline points="10.333333333333332,0,20.666666666666664,18.333333333333336,10.333333333333332,36.66666666666667,0,18.333333333333336" fill="#222" fill-opacity="0.08066666666666666" stroke="#000" stroke-opacity="0.02" transform="translate(30.999999999999996,18.333333333333336)"></polyline><polyline points="10.333333333333332,0,20.666666666666664,18.333333333333336,10.333333333333332,36.66666666666667,0,18.333333333333336" fill="#ddd" fill-opacity="0.03733333333333333" stroke="#000" stroke-opacity="0.02" transform="translate(51.66666666666666,18.333333333333336)"></polyline><polyline points="10.333333333333332,0,20.666666666666664,18.333333333333336,10.333333333333332,36.66666666666667,0,18.333333333333336" fill="#222" fill-opacity="0.046" stroke="#000" stroke-opacity="0.02" transform="translate(72.33333333333333,18.333333333333336)"></polyline><polyline points="10.333333333333332,0,20.666666666666664,18.333333333333336,10.333333333333332,36.66666666666667,0,18.333333333333336" fill="#ddd" fill-opacity="0.03733333333333333" stroke="#000" stroke-opacity="0.02" transform="translate(92.99999999999999,18.333333333333336)"></polyline><polyline points="10.333333333333332,0,20.666666666666664,18.333333333333336,10.333333333333332,36.66666666666667,0,18.333333333333336" fill="#222" fill-opacity="0.06333333333333334" stroke="#000" stroke-opacity="0.02" transform="translate(0,36.66666666666667)"></polyline><polyline points="10.333333333333332,0,20.666666666666664,18.333333333333336,10.333333333333332,36.66666666666667,0,18.333333333333336" fill="#222" fill-opacity="0.06333333333333334" stroke="#000" stroke-opacity="0.02" transform="translate(123.99999999999999,36.66666666666667)"></polyline><polyline points="10.333333333333332,0,20.666666666666664,18.333333333333336,10.333333333333332,36.66666666666667,0,18.333333333333336" fill="#ddd" fill-opacity="0.14133333333333334" stroke="#000" stroke-opacity="0.02" transform="translate(20.666666666666664,36.66666666666667)"></polyline><polyline points="10.333333333333332,0,20.666666666666664,18.333333333333336,10.333333333333332,36.66666666666667,0,18.333333333333336" fill="#222" fill-opacity="0.11533333333333334" stroke="#000" stroke-opacity="0.02" transform="translate(41.33333333333333,36.66666666666667)"></polyline><polyline points="10.333333333333332,0,20.666666666666664,18.333333333333336,10.333333333333332,36.66666666666667,0,18.333333333333336" fill="#ddd" fill-opacity="0.03733333333333333" stroke="#000" stroke-opacity="0.02" transform="translate(61.999999999999986,36.66666666666667)"></polyline><polyline points="10.333333333333332,0,20.666666666666664,18.333333333333336,10.333333333333332,36.66666666666667,0,18.333333333333336" fill="#ddd" fill-opacity="0.07200000000000001" stroke="#000" stroke-opacity="0.02" transform="translate(82.66666666666666,36.66666666666667)"></polyline><polyline points="10.333333333333332,0,20.666666666666664,18.333333333333336,10.333333333333332,36.66666666666667,0,18.333333333333336" fill="#ddd" fill-opacity="0.08933333333333333" stroke="#000" stroke-opacity="0.02" transform="translate(103.33333333333331,36.66666666666667)"></polyline><polyline points="10.333333333333332,0,20.666666666666664,18.333333333333336,10.333333333333332,36.66666666666667,0,18.333333333333336" fill="#222" fill-opacity="0.13266666666666665" stroke="#000" stroke-opacity="0.02" transform="translate(-10.333333333333332,55.00000000000001)"></polyline><polyline points="10.333333333333332,0,20.666666666666664,18.333333333333336,10.333333333333332,36.66666666666667,0,18.333333333333336" fill="#222" fill-opacity="0.13266666666666665" stroke="#000" stroke-opacity="0.02" transform="translate(113.66666666666666,55.00000000000001)"></polyline><polyline points="10.333333333333332,0,20.666666666666664,18.333333333333336,10.333333333333332,36.66666666666667,0,18.333333333333336" fill="#222" fill-opacity="0.13266666666666665" stroke="#000" stroke-opacity="0.02" transform="translate(10.333333333333332,55.00000000000001)"></polyline><polyline points="10.333333333333332,0,20.666666666666664,18.333333333333336,10.333333333333332,36.66666666666667,0,18.333333333333336" fill="#ddd" fill-opacity="0.02" stroke="#000" stroke-opacity="0.02" transform="translate(30.999999999999996,55.00000000000001)"></polyline><polyline points="10.333333333333332,0,20.666666666666664,18.333333333333336,10.333333333333332,36.66666666666667,0,18.333333333333336" fill="#ddd" fill-opacity="0.03733333333333333" stroke="#000" stroke-opacity="0.02" transform="translate(51.66666666666666,55.00000000000001)"></polyline><polyline points="10.333333333333332,0,20.666666666666664,18.333333333333336,10.333333333333332,36.66666666666667,0,18.333333333333336" fill="#222" fill-opacity="0.06333333333333334" stroke="#000" stroke-opacity="0.02" transform="translate(72.33333333333333,55.00000000000001)"></polyline><polyline points="10.333333333333332,0,20.666666666666664,18.333333333333336,10.333333333333332,36.66666666666667,0,18.333333333333336" fill="#222" fill-opacity="0.098" stroke="#000" stroke-opacity="0.02" transform="translate(92.99999999999999,55.00000000000001)"></polyline><polyline points="10.333333333333332,0,20.666666666666664,18.333333333333336,10.333333333333332,36.66666666666667,0,18.333333333333336" fill="#222" fill-opacity="0.028666666666666667" stroke="#000" stroke-opacity="0.02" transform="translate(0,73.33333333333334)"></polyline><polyline points="10.333333333333332,0,20.666666666666664,18.333333333333336,10.333333333333332,36.66666666666667,0,18.333333333333336" fill="#222" fill-opacity="0.028666666666666667" stroke="#000" stroke-opacity="0.02" transform="translate(123.99999999999999,73.33333333333334)"></polyline><polyline points="10.333333333333332,0,20.666666666666664,18.333333333333336,10.333333333333332,36.66666666666667,0,18.333333333333336" fill="#ddd" fill-opacity="0.12400000000000001" stroke="#000" stroke-opacity="0.02" transform="translate(20.666666666666664,73.33333333333334)"></polyline><polyline points="10.333333333333332,0,20.666666666666664,18.333333333333336,10.333333333333332,36.66666666666667,0,18.333333333333336" fill="#ddd" fill-opacity="0.02" stroke="#000" stroke-opacity="0.02" transform="translate(41.33333333333333,73.33333333333334)"></polyline><polyline points="10.333333333333332,0,20.666666666666664,18.333333333333336,10.333333333333332,36.66666666666667,0,18.333333333333336" fill="#222" fill-opacity="0.15" stroke="#000" stroke-opacity="0.02" transform="translate(61.999999999999986,73.33333333333334)"></polyline><polyline points="10.333333333333332,0,20.666666666666664,18.333333333333336,10.333333333333332,36.66666666666667,0,18.333333333333336" fill="#ddd" fill-opacity="0.02" stroke="#000" stroke-opacity="0.02" transform="translate(82.66666666666666,73.33333333333334)"></polyline><polyline points="10.333333333333332,0,20.666666666666664,18.333333333333336,10.333333333333332,36.66666666666667,0,18.333333333333336" fill="#222" fill-opacity="0.028666666666666667" stroke="#000" stroke-opacity="0.02" transform="translate(103.33333333333331,73.33333333333334)"></polyline></svg>